<?xml version="1.0" encoding="UTF-8" standalone="no"?>
<!DOCTYPE svg PUBLIC "-//W3C//DTD SVG 1.1//EN"
 "http://www.w3.org/Graphics/SVG/1.1/DTD/svg11.dtd">
<!-- Generated by graphviz version 12.1.1 (20240910.0053)
 -->
<!-- Title: INFRA Pages: 1 -->
<svg width="825pt" height="296pt"
 viewBox="0.00 0.00 824.61 296.00" xmlns="http://www.w3.org/2000/svg" xmlns:xlink="http://www.w3.org/1999/xlink">
<g id="graph0" class="graph" transform="scale(1 1) rotate(0) translate(4 292)">
<title>INFRA</title>
<polygon fill="white" stroke="none" points="-4,4 -4,-292 820.61,-292 820.61,4 -4,4"/>
<!-- pubsubbqdataset -->
<g id="node1" class="node">
<title>pubsubbqdataset</title>
<path fill="#ffcfb3" stroke="black" stroke-width="2" d="M182.56,-65.45C182.56,-69.07 141.65,-72 91.28,-72 40.91,-72 0,-69.07 0,-65.45 0,-65.45 0,-6.55 0,-6.55 0,-2.93 40.91,0 91.28,0 141.65,0 182.56,-2.93 182.56,-6.55 182.56,-6.55 182.56,-65.45 182.56,-65.45"/>
<path fill="none" stroke="black" stroke-width="2" d="M182.56,-65.45C182.56,-61.84 141.65,-58.91 91.28,-58.91 40.91,-58.91 0,-61.84 0,-65.45"/>
<text text-anchor="middle" x="91.28" y="-40.2" font-family="Arial" font-size="14.00">pubsubbqdataset</text>
<text text-anchor="middle" x="91.28" y="-23.4" font-family="Arial" font-size="14.00">(google_bigquery_dataset)</text>
</g>
<!-- pubsubbq&#45;table -->
<g id="node2" class="node">
<title>pubsubbq&#45;table</title>
<path fill="#ffcfb3" stroke="black" stroke-width="2" d="M182.78,-173.45C182.78,-177.07 145.36,-180 99.28,-180 53.21,-180 15.78,-177.07 15.78,-173.45 15.78,-173.45 15.78,-114.55 15.78,-114.55 15.78,-110.93 53.21,-108 99.28,-108 145.36,-108 182.78,-110.93 182.78,-114.55 182.78,-114.55 182.78,-173.45 182.78,-173.45"/>
<path fill="none" stroke="black" stroke-width="2" d="M182.78,-173.45C182.78,-169.84 145.36,-166.91 99.28,-166.91 53.21,-166.91 15.78,-169.84 15.78,-173.45"/>
<text text-anchor="middle" x="99.28" y="-148.2" font-family="Arial" font-size="14.00">pubsubbq&#45;table</text>
<text text-anchor="middle" x="99.28" y="-131.4" font-family="Arial" font-size="14.00">(google_bigquery_table)</text>
</g>
<!-- pubsubbq&#45;table&#45;&gt;pubsubbqdataset -->
<g id="edge1" class="edge">
<title>pubsubbq&#45;table&#45;&gt;pubsubbqdataset</title>
<path fill="none" stroke="black" d="M96.62,-107.7C96.03,-99.93 95.4,-91.57 94.79,-83.43"/>
<polygon fill="black" stroke="black" points="98.29,-83.36 94.05,-73.65 91.31,-83.89 98.29,-83.36"/>
</g>
<!-- pubsub&#45;bq&#45;sa -->
<g id="node3" class="node">
<title>pubsub&#45;bq&#45;sa</title>
<path fill="#e6e6e6" stroke="black" stroke-width="2" d="M564.44,-180C564.44,-180 412.12,-180 412.12,-180 406.12,-180 400.12,-174 400.12,-168 400.12,-168 400.12,-120 400.12,-120 400.12,-114 406.12,-108 412.12,-108 412.12,-108 564.44,-108 564.44,-108 570.44,-108 576.44,-114 576.44,-120 576.44,-120 576.44,-168 576.44,-168 576.44,-174 570.44,-180 564.44,-180"/>
<text text-anchor="middle" x="488.28" y="-148.2" font-family="Arial" font-size="14.00">pubsub&#45;bq&#45;sa</text>
<text text-anchor="middle" x="488.28" y="-131.4" font-family="Arial" font-size="14.00">(google_service_account)</text>
</g>
<!-- bigquery_data_editor -->
<g id="node4" class="node">
<title>bigquery_data_editor</title>
<path fill="#e6e6e6" stroke="black" stroke-width="2" d="M579.61,-288C579.61,-288 396.96,-288 396.96,-288 390.96,-288 384.96,-282 384.96,-276 384.96,-276 384.96,-228 384.96,-228 384.96,-222 390.96,-216 396.96,-216 396.96,-216 579.61,-216 579.61,-216 585.61,-216 591.61,-222 591.61,-228 591.61,-228 591.61,-276 591.61,-276 591.61,-282 585.61,-288 579.61,-288"/>
<text text-anchor="middle" x="488.28" y="-256.2" font-family="Arial" font-size="14.00">bigquery_data_editor</text>
<text text-anchor="middle" x="488.28" y="-239.4" font-family="Arial" font-size="14.00">(google_project_iam_member)</text>
</g>
<!-- bigquery_data_editor&#45;&gt;pubsub&#45;bq&#45;sa -->
<g id="edge2" class="edge">
<title>bigquery_data_editor&#45;&gt;pubsub&#45;bq&#45;sa</title>
<path fill="none" stroke="black" d="M488.28,-215.7C488.28,-207.93 488.28,-199.57 488.28,-191.43"/>
<polygon fill="black" stroke="black" points="491.78,-191.66 488.28,-181.66 484.78,-191.66 491.78,-191.66"/>
</g>
<!-- pubsub_subscriber -->
<g id="node5" class="node">
<title>pubsub_subscriber</title>
<path fill="#e6e6e6" stroke="black" stroke-width="2" d="M804.61,-288C804.61,-288 621.96,-288 621.96,-288 615.96,-288 609.96,-282 609.96,-276 609.96,-276 609.96,-228 609.96,-228 609.96,-222 615.96,-216 621.96,-216 621.96,-216 804.61,-216 804.61,-216 810.61,-216 816.61,-222 816.61,-228 816.61,-228 816.61,-276 816.61,-276 816.61,-282 810.61,-288 804.61,-288"/>
<text text-anchor="middle" x="713.28" y="-256.2" font-family="Arial" font-size="14.00">pubsub_subscriber</text>
<text text-anchor="middle" x="713.28" y="-239.4" font-family="Arial" font-size="14.00">(google_project_iam_member)</text>
</g>
<!-- pubsub_subscriber&#45;&gt;pubsub&#45;bq&#45;sa -->
<g id="edge3" class="edge">
<title>pubsub_subscriber&#45;&gt;pubsub&#45;bq&#45;sa</title>
<path fill="none" stroke="black" d="M638.05,-215.56C617.41,-205.83 594.88,-195.22 573.71,-185.25"/>
<polygon fill="black" stroke="black" points="575.35,-182.15 564.82,-181.06 572.37,-188.48 575.35,-182.15"/>
</g>
<!-- pubsubbq&#45;topic&#45;schema -->
<g id="node6" class="node">
<title>pubsubbq&#45;topic&#45;schema</title>
<path fill="#cce0ac" stroke="black" stroke-width="2" d="M366.23,-72C366.23,-72 212.34,-72 212.34,-72 206.34,-72 200.34,-66 200.34,-60 200.34,-60 200.34,-12 200.34,-12 200.34,-6 206.34,0 212.34,0 212.34,0 366.23,0 366.23,0 372.23,0 378.23,-6 378.23,-12 378.23,-12 378.23,-60 378.23,-60 378.23,-66 372.23,-72 366.23,-72"/>
<text text-anchor="middle" x="289.28" y="-40.2" font-family="Arial" font-size="14.00">pubsubbq&#45;topic&#45;schema</text>
<text text-anchor="middle" x="289.28" y="-23.4" font-family="Arial" font-size="14.00">(google_pubsub_schema)</text>
</g>
<!-- pubsubbq&#45;topic -->
<g id="node7" class="node">
<title>pubsubbq&#45;topic</title>
<path fill="#cce0ac" stroke="black" stroke-width="2" d="M351.5,-180C351.5,-180 217.06,-180 217.06,-180 211.06,-180 205.06,-174 205.06,-168 205.06,-168 205.06,-120 205.06,-120 205.06,-114 211.06,-108 217.06,-108 217.06,-108 351.5,-108 351.5,-108 357.5,-108 363.5,-114 363.5,-120 363.5,-120 363.5,-168 363.5,-168 363.5,-174 357.5,-180 351.5,-180"/>
<text text-anchor="middle" x="284.28" y="-148.2" font-family="Arial" font-size="14.00">pubsubbq&#45;topic</text>
<text text-anchor="middle" x="284.28" y="-131.4" font-family="Arial" font-size="14.00">(google_pubsub_topic)</text>
</g>
<!-- pubsubbq&#45;topic&#45;&gt;pubsubbq&#45;topic&#45;schema -->
<g id="edge4" class="edge">
<title>pubsubbq&#45;topic&#45;&gt;pubsubbq&#45;topic&#45;schema</title>
<path fill="none" stroke="black" d="M285.95,-107.7C286.31,-99.93 286.71,-91.57 287.09,-83.43"/>
<polygon fill="black" stroke="black" points="290.58,-83.81 287.55,-73.65 283.59,-83.48 290.58,-83.81"/>
</g>
<!-- pubsubbq&#45;topic&#45;subscription -->
<g id="node8" class="node">
<title>pubsubbq&#45;topic&#45;subscription</title>
<path fill="#cce0ac" stroke="black" stroke-width="2" d="M355.07,-288C355.07,-288 175.5,-288 175.5,-288 169.5,-288 163.5,-282 163.5,-276 163.5,-276 163.5,-228 163.5,-228 163.5,-222 169.5,-216 175.5,-216 175.5,-216 355.07,-216 355.07,-216 361.07,-216 367.07,-222 367.07,-228 367.07,-228 367.07,-276 367.07,-276 367.07,-282 361.07,-288 355.07,-288"/>
<text text-anchor="middle" x="265.28" y="-256.2" font-family="Arial" font-size="14.00">pubsubbq&#45;topic&#45;subscription</text>
<text text-anchor="middle" x="265.28" y="-239.4" font-family="Arial" font-size="14.00">(google_pubsub_subscription)</text>
</g>
<!-- pubsubbq&#45;topic&#45;subscription&#45;&gt;pubsubbq&#45;table -->
<g id="edge7" class="edge">
<title>pubsubbq&#45;topic&#45;subscription&#45;&gt;pubsubbq&#45;table</title>
<path fill="none" stroke="black" d="M210.01,-215.7C195.01,-206.13 178.65,-195.68 163.22,-185.83"/>
<polygon fill="black" stroke="black" points="165.34,-183.03 155.03,-180.6 161.57,-188.93 165.34,-183.03"/>
</g>
<!-- pubsubbq&#45;topic&#45;subscription&#45;&gt;pubsub&#45;bq&#45;sa -->
<g id="edge6" class="edge">
<title>pubsubbq&#45;topic&#45;subscription&#45;&gt;pubsub&#45;bq&#45;sa</title>
<path fill="none" stroke="black" d="M339.85,-215.56C360.3,-205.83 382.63,-195.22 403.61,-185.25"/>
<polygon fill="black" stroke="black" points="404.89,-188.51 412.42,-181.06 401.89,-182.19 404.89,-188.51"/>
</g>
<!-- pubsubbq&#45;topic&#45;subscription&#45;&gt;pubsubbq&#45;topic -->
<g id="edge5" class="edge">
<title>pubsubbq&#45;topic&#45;subscription&#45;&gt;pubsubbq&#45;topic</title>
<path fill="none" stroke="black" d="M271.61,-215.7C273,-207.93 274.5,-199.57 275.96,-191.43"/>
<polygon fill="black" stroke="black" points="279.4,-192.09 277.72,-181.63 272.51,-190.86 279.4,-192.09"/>
</g>
</g>
</svg>
